<?xml version="1.0" standalone="no"?>
<!DOCTYPE svg PUBLIC "-//W3C//DTD SVG 20010904//EN"
 "http://www.w3.org/TR/2001/REC-SVG-20010904/DTD/svg10.dtd">
<svg version="1.0" xmlns="http://www.w3.org/2000/svg"
 width="700.000000pt" height="700.000000pt" viewBox="0 0 700.000000 700.000000"
 preserveAspectRatio="xMidYMid meet">
<metadata>
Created by potrace 1.14, written by Peter Selinger 2001-2017
</metadata>
<g transform="translate(0.000000,700.000000) scale(0.100000,-0.100000)"
fill="#000000" stroke="none">
<path d="M459 6993 c0 -4 -2 -15 -5 -23 -28 -105 -29 -158 -8 -300 43 -283
226 -621 568 -1045 44 -55 85 -105 91 -111 5 -6 43 -49 84 -95 95 -107 579
-591 690 -689 46 -41 93 -84 105 -96 12 -11 53 -47 91 -80 39 -32 72 -61 75
-64 14 -15 279 -238 375 -315 374 -304 644 -571 783 -773 12 -18 22 -36 22
-39 0 -4 6 -14 14 -22 8 -9 34 -55 59 -103 128 -245 158 -444 101 -675 -46
-191 -132 -341 -390 -688 -287 -385 -376 -550 -422 -775 -13 -67 -6 -262 12
-330 24 -89 76 -199 133 -278 49 -70 260 -285 355 -362 30 -25 68 -62 83 -82
19 -25 33 -34 44 -30 26 9 62 56 55 72 -27 65 -37 199 -22 278 5 26 11 63 14
82 8 48 64 210 103 294 56 123 154 286 285 475 42 60 224 293 263 336 10 11
54 61 98 110 110 124 538 552 665 666 58 51 112 100 120 107 27 27 355 307
435 372 370 302 422 347 621 545 137 136 238 251 321 365 48 67 183 288 183
301 0 5 4 17 10 27 23 41 61 162 80 254 23 117 22 305 -4 399 -48 178 -163
392 -275 508 -9 10 -43 46 -77 82 -123 129 -282 268 -444 388 -137 101 -188
151 -238 229 -63 98 -77 202 -41 307 58 175 188 314 529 567 175 130 248 194
236 205 -10 11 -5776 17 -5777 6z"/>
</g>
</svg>
