<svg xmlns="http://www.w3.org/2000/svg" xmlns:xlink="http://www.w3.org/1999/xlink" version="1.1" width="256" height="256" viewBox="0 0 256 256" xml:space="preserve">

<defs>
</defs>
<g style="stroke: none; stroke-width: 0; stroke-dasharray: none; stroke-linecap: butt; stroke-linejoin: miter; stroke-miterlimit: 10; fill: none; fill-rule: nonzero; opacity: 1;" transform="translate(1.4065934065934016 1.4065934065934016) scale(2.81 2.81)" >
	<path d="M 84.735 79.545 H 22.314 c -2.355 0 -4.265 -1.909 -4.265 -4.265 V 14.72 c 0 -2.355 1.909 -4.265 4.265 -4.265 h 62.422 c 2.355 0 4.265 1.909 4.265 4.265 v 60.56 C 89 77.635 87.091 79.545 84.735 79.545 z" style="stroke: none; stroke-width: 1; stroke-dasharray: none; stroke-linecap: butt; stroke-linejoin: miter; stroke-miterlimit: 10; fill: rgb(176,182,188); fill-rule: nonzero; opacity: 1;" transform=" matrix(1 0 0 1 0 0) " stroke-linecap="round" />
	<path d="M 89 75.28 V 60.244 L 73.395 44.291 l -29.39 24.709 L 32.82 58.856 l -14.772 11.03 v 5.395 c 0 2.355 1.909 4.265 4.265 4.265 h 62.422 C 87.091 79.545 89 77.635 89 75.28 z" style="stroke: none; stroke-width: 1; stroke-dasharray: none; stroke-linecap: butt; stroke-linejoin: miter; stroke-miterlimit: 10; fill: rgb(201,207,212); fill-rule: nonzero; opacity: 1;" transform=" matrix(1 0 0 1 0 0) " stroke-linecap="round" />
	<path d="M 84.735 80.545 H 22.313 c -2.903 0 -5.265 -2.361 -5.265 -5.265 V 14.72 c 0 -2.903 2.362 -5.265 5.265 -5.265 h 62.422 c 2.903 0 5.265 2.362 5.265 5.265 v 60.56 C 90 78.184 87.639 80.545 84.735 80.545 z M 22.313 11.456 c -1.8 0 -3.265 1.464 -3.265 3.265 v 60.56 c 0 1.8 1.464 3.265 3.265 3.265 h 62.422 c 1.8 0 3.265 -1.465 3.265 -3.265 V 14.72 c 0 -1.8 -1.465 -3.265 -3.265 -3.265 H 22.313 z" style="stroke: none; stroke-width: 1; stroke-dasharray: none; stroke-linecap: butt; stroke-linejoin: miter; stroke-miterlimit: 10; fill: rgb(0,0,0); fill-rule: nonzero; opacity: 1;" transform=" matrix(1 0 0 1 0 0) " stroke-linecap="round" />
	<path d="M 84.735 80.545 H 22.313 c -2.903 0 -5.265 -2.361 -5.265 -5.265 v -5.396 c 0 -0.315 0.149 -0.612 0.402 -0.802 l 14.771 -11.029 c 0.383 -0.285 0.915 -0.262 1.27 0.062 l 10.537 9.557 l 28.722 -24.147 c 0.398 -0.334 0.991 -0.309 1.358 0.066 l 15.605 15.954 C 89.897 59.731 90 59.982 90 60.244 V 75.28 C 90 78.184 87.639 80.545 84.735 80.545 z M 19.049 70.386 v 4.895 c 0 1.8 1.464 3.265 3.265 3.265 h 62.422 c 1.8 0 3.265 -1.465 3.265 -3.265 V 60.652 l -14.672 -15 l -28.68 24.112 c -0.382 0.321 -0.944 0.311 -1.315 -0.024 l -10.574 -9.591 L 19.049 70.386 z" style="stroke: none; stroke-width: 1; stroke-dasharray: none; stroke-linecap: butt; stroke-linejoin: miter; stroke-miterlimit: 10; fill: rgb(0,0,0); fill-rule: nonzero; opacity: 1;" transform=" matrix(1 0 0 1 0 0) " stroke-linecap="round" />
	<path d="M 46.301 35.753 H 31.677 c -0.552 0 -1 -0.448 -1 -1 s 0.448 -1 1 -1 h 14.624 c 0.553 0 1 0.448 1 1 S 46.854 35.753 46.301 35.753 z" style="stroke: none; stroke-width: 1; stroke-dasharray: none; stroke-linecap: butt; stroke-linejoin: miter; stroke-miterlimit: 10; fill: rgb(0,0,0); fill-rule: nonzero; opacity: 1;" transform=" matrix(1 0 0 1 0 0) " stroke-linecap="round" />
	<path d="M 46.301 48.957 H 43.39 c -0.306 0 -0.595 -0.14 -0.785 -0.38 l -3.614 -4.575 h -7.315 c -0.552 0 -1 -0.448 -1 -1 s 0.448 -1 1 -1 h 7.799 c 0.306 0 0.595 0.14 0.785 0.38 l 3.614 4.575 h 2.426 c 0.553 0 1 0.447 1 1 S 46.854 48.957 46.301 48.957 z" style="stroke: none; stroke-width: 1; stroke-dasharray: none; stroke-linecap: butt; stroke-linejoin: miter; stroke-miterlimit: 10; fill: rgb(0,0,0); fill-rule: nonzero; opacity: 1;" transform=" matrix(1 0 0 1 0 0) " stroke-linecap="round" />
	<path d="M 39.476 27.504 h -7.799 c -0.552 0 -1 -0.448 -1 -1 s 0.448 -1 1 -1 h 7.315 l 3.614 -4.575 c 0.189 -0.24 0.479 -0.38 0.785 -0.38 h 2.911 c 0.553 0 1 0.448 1 1 s -0.447 1 -1 1 h -2.426 l -3.614 4.575 C 40.071 27.364 39.782 27.504 39.476 27.504 z" style="stroke: none; stroke-width: 1; stroke-dasharray: none; stroke-linecap: butt; stroke-linejoin: miter; stroke-miterlimit: 10; fill: rgb(0,0,0); fill-rule: nonzero; opacity: 1;" transform=" matrix(1 0 0 1 0 0) " stroke-linecap="round" />
	<circle cx="50.608" cy="47.958" r="3.738" style="stroke: none; stroke-width: 1; stroke-dasharray: none; stroke-linecap: butt; stroke-linejoin: miter; stroke-miterlimit: 10; fill: rgb(247,191,80); fill-rule: nonzero; opacity: 1;" transform="  matrix(1 0 0 1 0 0) "/>
	<path d="M 50.609 52.695 c -2.612 0 -4.738 -2.126 -4.738 -4.738 s 2.126 -4.738 4.738 -4.738 s 4.738 2.125 4.738 4.738 S 53.222 52.695 50.609 52.695 z M 50.609 45.219 c -1.51 0 -2.738 1.228 -2.738 2.738 s 1.229 2.738 2.738 2.738 s 2.738 -1.229 2.738 -2.738 S 52.119 45.219 50.609 45.219 z" style="stroke: none; stroke-width: 1; stroke-dasharray: none; stroke-linecap: butt; stroke-linejoin: miter; stroke-miterlimit: 10; fill: rgb(0,0,0); fill-rule: nonzero; opacity: 1;" transform=" matrix(1 0 0 1 0 0) " stroke-linecap="round" />
	<circle cx="50.608" cy="34.758" r="3.738" style="stroke: none; stroke-width: 1; stroke-dasharray: none; stroke-linecap: butt; stroke-linejoin: miter; stroke-miterlimit: 10; fill: rgb(126,198,197); fill-rule: nonzero; opacity: 1;" transform="  matrix(1 0 0 1 0 0) "/>
	<path d="M 50.609 39.492 c -2.612 0 -4.738 -2.125 -4.738 -4.738 s 2.126 -4.738 4.738 -4.738 s 4.738 2.125 4.738 4.738 S 53.222 39.492 50.609 39.492 z M 50.609 32.015 c -1.51 0 -2.738 1.229 -2.738 2.738 s 1.229 2.738 2.738 2.738 s 2.738 -1.229 2.738 -2.738 S 52.119 32.015 50.609 32.015 z" style="stroke: none; stroke-width: 1; stroke-dasharray: none; stroke-linecap: butt; stroke-linejoin: miter; stroke-miterlimit: 10; fill: rgb(0,0,0); fill-rule: nonzero; opacity: 1;" transform=" matrix(1 0 0 1 0 0) " stroke-linecap="round" />
	<circle cx="50.608" cy="21.548" r="3.738" style="stroke: none; stroke-width: 1; stroke-dasharray: none; stroke-linecap: butt; stroke-linejoin: miter; stroke-miterlimit: 10; fill: rgb(241,123,123); fill-rule: nonzero; opacity: 1;" transform="  matrix(1 0 0 1 0 0) "/>
	<path d="M 50.609 26.288 c -2.612 0 -4.738 -2.125 -4.738 -4.738 s 2.126 -4.738 4.738 -4.738 s 4.738 2.125 4.738 4.738 S 53.222 26.288 50.609 26.288 z M 50.609 18.811 c -1.51 0 -2.738 1.229 -2.738 2.738 s 1.229 2.738 2.738 2.738 s 2.738 -1.229 2.738 -2.738 S 52.119 18.811 50.609 18.811 z" style="stroke: none; stroke-width: 1; stroke-dasharray: none; stroke-linecap: butt; stroke-linejoin: miter; stroke-miterlimit: 10; fill: rgb(0,0,0); fill-rule: nonzero; opacity: 1;" transform=" matrix(1 0 0 1 0 0) " stroke-linecap="round" />
	<path d="M 1 45.912 l 0 -22.316 c 0 -2.182 1.769 -3.95 3.95 -3.95 l 22.316 0 c 2.182 0 3.95 1.769 3.95 3.95 l 0 22.316 c 0 2.182 -1.769 3.95 -3.95 3.95 l -22.316 0 C 2.769 49.862 1 48.093 1 45.912 z" style="stroke: none; stroke-width: 1; stroke-dasharray: none; stroke-linecap: butt; stroke-linejoin: miter; stroke-miterlimit: 10; fill: rgb(247,191,80); fill-rule: nonzero; opacity: 1;" transform=" matrix(1 0 0 1 0 0) " stroke-linecap="round" />
	<path d="M 27.267 50.861 H 4.95 c -2.729 0 -4.95 -2.221 -4.95 -4.95 V 23.595 c 0 -2.729 2.221 -4.95 4.95 -4.95 h 22.316 c 2.729 0 4.95 2.221 4.95 4.95 v 22.316 C 32.217 48.641 29.996 50.861 27.267 50.861 z M 4.95 20.645 c -1.627 0 -2.95 1.323 -2.95 2.95 v 22.316 c 0 1.626 1.323 2.95 2.95 2.95 h 22.316 c 1.627 0 2.95 -1.323 2.95 -2.95 V 23.595 c 0 -1.627 -1.323 -2.95 -2.95 -2.95 H 4.95 z" style="stroke: none; stroke-width: 1; stroke-dasharray: none; stroke-linecap: butt; stroke-linejoin: miter; stroke-miterlimit: 10; fill: rgb(0,0,0); fill-rule: nonzero; opacity: 1;" transform=" matrix(1 0 0 1 0 0) " stroke-linecap="round" />
	<path d="M 15.269 41.913 c -0.552 0 -1 -0.448 -1 -1 V 31.25 c 0 -0.913 -0.743 -1.656 -1.656 -1.656 h -2.334 c -0.913 0 -1.656 0.743 -1.656 1.656 v 9.663 c 0 0.552 -0.448 1 -1 1 s -1 -0.448 -1 -1 V 31.25 c 0 -2.016 1.64 -3.656 3.656 -3.656 h 2.334 c 2.016 0 3.656 1.64 3.656 3.656 v 9.663 C 16.269 41.465 15.821 41.913 15.269 41.913 z" style="stroke: none; stroke-width: 1; stroke-dasharray: none; stroke-linecap: butt; stroke-linejoin: miter; stroke-miterlimit: 10; fill: rgb(0,0,0); fill-rule: nonzero; opacity: 1;" transform=" matrix(1 0 0 1 0 0) " stroke-linecap="round" />
	<path d="M 15.269 35.753 H 7.623 c -0.552 0 -1 -0.448 -1 -1 s 0.448 -1 1 -1 h 7.646 c 0.552 0 1 0.448 1 1 S 15.821 35.753 15.269 35.753 z" style="stroke: none; stroke-width: 1; stroke-dasharray: none; stroke-linecap: butt; stroke-linejoin: miter; stroke-miterlimit: 10; fill: rgb(0,0,0); fill-rule: nonzero; opacity: 1;" transform=" matrix(1 0 0 1 0 0) " stroke-linecap="round" />
	<path d="M 22.069 41.913 c -0.552 0 -1 -0.448 -1 -1 V 28.594 c 0 -0.552 0.448 -1 1 -1 s 1 0.448 1 1 v 12.318 C 23.069 41.465 22.621 41.913 22.069 41.913 z" style="stroke: none; stroke-width: 1; stroke-dasharray: none; stroke-linecap: butt; stroke-linejoin: miter; stroke-miterlimit: 10; fill: rgb(0,0,0); fill-rule: nonzero; opacity: 1;" transform=" matrix(1 0 0 1 0 0) " stroke-linecap="round" />
	<path d="M 24.594 29.594 h -5.05 c -0.552 0 -1 -0.448 -1 -1 s 0.448 -1 1 -1 h 5.05 c 0.552 0 1 0.448 1 1 S 25.146 29.594 24.594 29.594 z" style="stroke: none; stroke-width: 1; stroke-dasharray: none; stroke-linecap: butt; stroke-linejoin: miter; stroke-miterlimit: 10; fill: rgb(0,0,0); fill-rule: nonzero; opacity: 1;" transform=" matrix(1 0 0 1 0 0) " stroke-linecap="round" />
	<path d="M 24.594 41.913 h -5.05 c -0.552 0 -1 -0.448 -1 -1 s 0.448 -1 1 -1 h 5.05 c 0.552 0 1 0.448 1 1 S 25.146 41.913 24.594 41.913 z" style="stroke: none; stroke-width: 1; stroke-dasharray: none; stroke-linecap: butt; stroke-linejoin: miter; stroke-miterlimit: 10; fill: rgb(0,0,0); fill-rule: nonzero; opacity: 1;" transform=" matrix(1 0 0 1 0 0) " stroke-linecap="round" />
	<circle cx="73.786" cy="27.406" r="7.096" style="stroke: none; stroke-width: 1; stroke-dasharray: none; stroke-linecap: butt; stroke-linejoin: miter; stroke-miterlimit: 10; fill: rgb(201,207,212); fill-rule: nonzero; opacity: 1;" transform="  matrix(1 0 0 1 0 0) "/>
	<path d="M 73.782 35.499 c -4.465 0 -8.097 -3.632 -8.097 -8.096 s 3.632 -8.097 8.097 -8.097 c 4.464 0 8.096 3.632 8.096 8.097 S 78.246 35.499 73.782 35.499 z M 73.782 21.306 c -3.361 0 -6.097 2.735 -6.097 6.097 c 0 3.361 2.735 6.096 6.097 6.096 s 6.096 -2.735 6.096 -6.096 C 79.878 24.041 77.144 21.306 73.782 21.306 z" style="stroke: none; stroke-width: 1; stroke-dasharray: none; stroke-linecap: butt; stroke-linejoin: miter; stroke-miterlimit: 10; fill: rgb(0,0,0); fill-rule: nonzero; opacity: 1;" transform=" matrix(1 0 0 1 0 0) " stroke-linecap="round" />
</g>
</svg>