<svg xmlns="http://www.w3.org/2000/svg" xmlns:xlink="http://www.w3.org/1999/xlink" version="1.1" width="256" height="256" viewBox="0 0 256 256" xml:space="preserve">

<defs>
</defs>
<g style="stroke: none; stroke-width: 0; stroke-dasharray: none; stroke-linecap: butt; stroke-linejoin: miter; stroke-miterlimit: 10; fill: none; fill-rule: nonzero; opacity: 1;" transform="translate(1.4065934065934016 1.4065934065934016) scale(2.81 2.81)" >
	<path d="M 0 30.03 v 48.062 c 0 3.401 2.757 6.157 6.157 6.157 h 77.686 c 3.401 0 6.157 -2.757 6.157 -6.157 V 30.03 C 60 23.065 30 23.065 0 30.03 z" style="stroke: none; stroke-width: 1; stroke-dasharray: none; stroke-linecap: butt; stroke-linejoin: miter; stroke-miterlimit: 10; fill: rgb(234,234,234); fill-rule: nonzero; opacity: 1;" transform=" matrix(1 0 0 1 0 0) " stroke-linecap="round" />
	<path d="M 90 30.03 H 0 V 11.908 c 0 -3.401 2.757 -6.157 6.157 -6.157 h 77.686 c 3.401 0 6.157 2.757 6.157 6.157 V 30.03 z" style="stroke: none; stroke-width: 1; stroke-dasharray: none; stroke-linecap: butt; stroke-linejoin: miter; stroke-miterlimit: 10; fill: rgb(93,116,138); fill-rule: nonzero; opacity: 1;" transform=" matrix(1 0 0 1 0 0) " stroke-linecap="round" />
	<circle cx="35.395" cy="17.895" r="3.645" style="stroke: none; stroke-width: 1; stroke-dasharray: none; stroke-linecap: butt; stroke-linejoin: miter; stroke-miterlimit: 10; fill: rgb(183,229,70); fill-rule: nonzero; opacity: 1;" transform="  matrix(1 0 0 1 0 0) "/>
	<circle cx="10.985" cy="17.895" r="3.645" style="stroke: none; stroke-width: 1; stroke-dasharray: none; stroke-linecap: butt; stroke-linejoin: miter; stroke-miterlimit: 10; fill: rgb(220,73,85); fill-rule: nonzero; opacity: 1;" transform="  matrix(1 0 0 1 0 0) "/>
	<circle cx="23.195" cy="17.895" r="3.645" style="stroke: none; stroke-width: 1; stroke-dasharray: none; stroke-linecap: butt; stroke-linejoin: miter; stroke-miterlimit: 10; fill: rgb(255,191,84); fill-rule: nonzero; opacity: 1;" transform="  matrix(1 0 0 1 0 0) "/>
	<path d="M 44.842 66.05 h -2.947 c -2.4 0 -4.354 -1.953 -4.354 -4.354 V 52.85 c 0 -2.4 1.953 -4.354 4.354 -4.354 h 2.947 c 2.4 0 4.353 1.953 4.353 4.354 v 8.847 C 49.195 64.097 47.242 66.05 44.842 66.05 z M 41.895 50.496 c -1.298 0 -2.354 1.056 -2.354 2.354 v 8.847 c 0 1.298 1.056 2.354 2.354 2.354 h 2.947 c 1.297 0 2.353 -1.056 2.353 -2.354 V 52.85 c 0 -1.298 -1.056 -2.354 -2.353 -2.354 H 41.895 z" style="stroke: none; stroke-width: 1; stroke-dasharray: none; stroke-linecap: butt; stroke-linejoin: miter; stroke-miterlimit: 10; fill: rgb(93,116,138); fill-rule: nonzero; opacity: 1;" transform=" matrix(1 0 0 1 0 0) " stroke-linecap="round" />
	<path d="M 28.479 66.05 h -2.947 c -2.4 0 -4.354 -1.953 -4.354 -4.354 V 52.85 c 0 -2.4 1.953 -4.354 4.354 -4.354 h 2.947 c 2.4 0 4.354 1.953 4.354 4.354 c 0 0.553 -0.448 1 -1 1 s -1 -0.447 -1 -1 c 0 -1.298 -1.056 -2.354 -2.354 -2.354 h -2.947 c -1.298 0 -2.354 1.056 -2.354 2.354 v 8.847 c 0 1.298 1.056 2.354 2.354 2.354 h 2.947 c 1.298 0 2.354 -1.056 2.354 -2.354 c 0 -0.553 0.448 -1 1 -1 s 1 0.447 1 1 C 32.832 64.097 30.879 66.05 28.479 66.05 z" style="stroke: none; stroke-width: 1; stroke-dasharray: none; stroke-linecap: butt; stroke-linejoin: miter; stroke-miterlimit: 10; fill: rgb(93,116,138); fill-rule: nonzero; opacity: 1;" transform=" matrix(1 0 0 1 0 0) " stroke-linecap="round" />
	<path d="M 55.928 66.05 c -0.553 0 -1 -0.447 -1 -1 v -12.2 c 0 -2.4 1.953 -4.354 4.354 -4.354 h 1.925 c 2.4 0 4.354 1.953 4.354 4.354 c 0 0.553 -0.447 1 -1 1 s -1 -0.447 -1 -1 c 0 -1.298 -1.056 -2.354 -2.354 -2.354 h -1.925 c -1.298 0 -2.354 1.056 -2.354 2.354 v 12.2 C 56.928 65.603 56.48 66.05 55.928 66.05 z" style="stroke: none; stroke-width: 1; stroke-dasharray: none; stroke-linecap: butt; stroke-linejoin: miter; stroke-miterlimit: 10; fill: rgb(93,116,138); fill-rule: nonzero; opacity: 1;" transform=" matrix(1 0 0 1 0 0) " stroke-linecap="round" />
	<path d="M 73.19 66.05 c -0.553 0 -1 -0.447 -1 -1 v -12.2 c 0 -1.298 -1.056 -2.354 -2.354 -2.354 h -1.924 c -1.298 0 -2.354 1.056 -2.354 2.354 v 12.2 c 0 0.553 -0.447 1 -1 1 s -1 -0.447 -1 -1 v -12.2 c 0 -2.4 1.953 -4.354 4.354 -4.354 h 1.924 c 2.4 0 4.354 1.953 4.354 4.354 v 12.2 C 74.19 65.603 73.743 66.05 73.19 66.05 z" style="stroke: none; stroke-width: 1; stroke-dasharray: none; stroke-linecap: butt; stroke-linejoin: miter; stroke-miterlimit: 10; fill: rgb(93,116,138); fill-rule: nonzero; opacity: 1;" transform=" matrix(1 0 0 1 0 0) " stroke-linecap="round" />
	<path d="M 16.81 66.05 c -0.27 0 -0.52 -0.1 -0.71 -0.29 c -0.19 -0.19 -0.29 -0.45 -0.29 -0.71 s 0.11 -0.52 0.29 -0.71 c 0.09 -0.09 0.2 -0.16 0.33 -0.21 c 0.36 -0.16 0.81 -0.07 1.09 0.21 c 0.18 0.19 0.29 0.45 0.29 0.71 s -0.1 0.52 -0.29 0.71 c -0.1 0.09 -0.21 0.16 -0.33 0.21 S 16.94 66.05 16.81 66.05 z" style="stroke: none; stroke-width: 1; stroke-dasharray: none; stroke-linecap: butt; stroke-linejoin: miter; stroke-miterlimit: 10; fill: rgb(93,116,138); fill-rule: nonzero; opacity: 1;" transform=" matrix(1 0 0 1 0 0) " stroke-linecap="round" />
</g>
</svg>